<svg xmlns="http://www.w3.org/2000/svg" width="400" height="80" viewBox="0 0 400 80">
  <title>Catppuccin Mocha color theme preview</title>
  <rect x="0" y="0" width="50" height="80" fill="#1e1e2e"/>
  <rect x="50" y="0" width="50" height="80" fill="#cdd6f4"/>
  <line x1="50" y1="0" x2="50" y2="80" stroke="rgba(0,0,0,0.1)" stroke-width="1"/>
  <rect x="100" y="0" width="50" height="80" fill="#585b70"/>
  <line x1="100" y1="0" x2="100" y2="80" stroke="rgba(0,0,0,0.1)" stroke-width="1"/>
  <rect x="150" y="0" width="50" height="80" fill="#f5e0dc"/>
  <line x1="150" y1="0" x2="150" y2="80" stroke="rgba(0,0,0,0.1)" stroke-width="1"/>
  <rect x="200" y="0" width="50" height="80" fill="#f38ba8"/>
  <line x1="200" y1="0" x2="200" y2="80" stroke="rgba(0,0,0,0.1)" stroke-width="1"/>
  <rect x="250" y="0" width="50" height="80" fill="#a6e3a1"/>
  <line x1="250" y1="0" x2="250" y2="80" stroke="rgba(0,0,0,0.1)" stroke-width="1"/>
  <rect x="300" y="0" width="50" height="80" fill="#89b4fa"/>
  <line x1="300" y1="0" x2="300" y2="80" stroke="rgba(0,0,0,0.1)" stroke-width="1"/>
  <rect x="350" y="0" width="50" height="80" fill="#f9e2af"/>
  <line x1="350" y1="0" x2="350" y2="80" stroke="rgba(0,0,0,0.1)" stroke-width="1"/>
  <rect x="0" y="0" width="400" height="80" fill="none" stroke="rgba(0,0,0,0.2)" stroke-width="1"/>
</svg>